<svg xmlns="http://www.w3.org/2000/svg" xmlns:xlink="http://www.w3.org/1999/xlink" width="159" zoomAndPan="magnify" viewBox="0 0 119.25 94.499998" height="126" preserveAspectRatio="xMidYMid meet" version="1.0"><defs><g/><clipPath id="29c100f587"><path d="M 40 0.046875 L 112.554688 0.046875 L 112.554688 70 L 40 70 Z M 40 0.046875 " clip-rule="nonzero"/></clipPath><clipPath id="4a8a166bd5"><path d="M 5.230469 22 L 61 22 L 61 70 L 5.230469 70 Z M 5.230469 22 " clip-rule="nonzero"/></clipPath></defs><g clip-path="url(#29c100f587)"><path fill="#bfa7f2" d="M 40.53125 9.5 L 45.589844 0.839844 L 58.511719 23.152344 L 71.992188 0.046875 L 112.652344 69.96875 L 102.566406 69.96875 L 71.976562 17.363281 L 63.535156 31.832031 L 85.621094 69.96875 L 75.546875 69.96875 Z M 40.53125 9.5 " fill-opacity="1" fill-rule="nonzero"/></g><g clip-path="url(#4a8a166bd5)"><path fill="#ff66c4" d="M 5.261719 69.96875 L 60.082031 69.96875 L 32.761719 22.757812 Z M 20.433594 61.28125 L 32.738281 40.160156 L 44.960938 61.28125 Z M 20.433594 61.28125 " fill-opacity="1" fill-rule="nonzero"/></g><g fill="#d9d9d9" fill-opacity="1"><g transform="translate(31.80614, 83.298445)"><g><path d="M 10.359375 -10.578125 C 10.753906 -10.578125 11.054688 -10.492188 11.265625 -10.328125 C 11.484375 -10.160156 11.59375 -9.925781 11.59375 -9.625 C 11.59375 -9.476562 11.570312 -9.335938 11.53125 -9.203125 L 11.125 -7.71875 C 11.050781 -7.445312 10.925781 -7.25 10.75 -7.125 C 10.582031 -7.007812 10.363281 -6.953125 10.09375 -6.953125 C 9.820312 -6.953125 9.609375 -7.007812 9.453125 -7.125 C 9.296875 -7.238281 9.179688 -7.421875 9.109375 -7.671875 L 8.84375 -8.578125 C 8.800781 -8.734375 8.75 -8.835938 8.6875 -8.890625 C 8.625 -8.953125 8.492188 -8.984375 8.296875 -8.984375 L 6.703125 -8.984375 L 5.8125 -5.828125 L 6.125 -5.828125 C 6.269531 -5.828125 6.394531 -5.847656 6.5 -5.890625 C 6.613281 -5.929688 6.734375 -6.015625 6.859375 -6.140625 L 7.359375 -6.546875 C 7.535156 -6.703125 7.695312 -6.8125 7.84375 -6.875 C 7.988281 -6.945312 8.140625 -6.984375 8.296875 -6.984375 C 8.492188 -6.984375 8.660156 -6.925781 8.796875 -6.8125 C 8.929688 -6.695312 9 -6.535156 9 -6.328125 C 9 -6.242188 8.984375 -6.140625 8.953125 -6.015625 L 8.25 -3.609375 C 8.09375 -3.085938 7.804688 -2.828125 7.390625 -2.828125 C 7.046875 -2.828125 6.78125 -3.003906 6.59375 -3.359375 L 6.3125 -3.890625 C 6.238281 -4.035156 6.164062 -4.128906 6.09375 -4.171875 C 6.03125 -4.222656 5.9375 -4.25 5.8125 -4.25 L 5.359375 -4.25 L 4.6875 -1.875 C 4.664062 -1.8125 4.65625 -1.726562 4.65625 -1.625 C 4.65625 -1.46875 4.6875 -1.34375 4.75 -1.25 C 4.820312 -1.15625 4.925781 -1.054688 5.0625 -0.953125 C 5.1875 -0.859375 5.269531 -0.78125 5.3125 -0.71875 C 5.351562 -0.664062 5.375 -0.597656 5.375 -0.515625 C 5.375 -0.316406 5.285156 -0.179688 5.109375 -0.109375 C 4.941406 -0.0351562 4.695312 0 4.375 0 L 0.375 0 C 0.101562 0 -0.0976562 -0.046875 -0.234375 -0.140625 C -0.367188 -0.242188 -0.414062 -0.390625 -0.375 -0.578125 C -0.351562 -0.671875 -0.3125 -0.742188 -0.25 -0.796875 C -0.195312 -0.859375 -0.113281 -0.925781 0 -1 C 0.175781 -1.101562 0.316406 -1.210938 0.421875 -1.328125 C 0.535156 -1.453125 0.625 -1.632812 0.6875 -1.875 L 2.640625 -8.71875 C 2.679688 -8.863281 2.703125 -8.992188 2.703125 -9.109375 C 2.703125 -9.234375 2.679688 -9.335938 2.640625 -9.421875 C 2.609375 -9.503906 2.554688 -9.59375 2.484375 -9.6875 C 2.378906 -9.832031 2.328125 -9.945312 2.328125 -10.03125 C 2.328125 -10.0625 2.34375 -10.117188 2.375 -10.203125 C 2.414062 -10.335938 2.507812 -10.429688 2.65625 -10.484375 C 2.800781 -10.546875 3.019531 -10.578125 3.3125 -10.578125 Z M 10.359375 -10.578125 "/></g></g></g><g fill="#d9d9d9" fill-opacity="1"><g transform="translate(41.836629, 83.298445)"><g><path d="M 4.171875 -8.40625 C 4.785156 -8.40625 5.234375 -8.285156 5.515625 -8.046875 C 5.804688 -7.816406 5.953125 -7.503906 5.953125 -7.109375 C 5.953125 -6.859375 5.914062 -6.625 5.84375 -6.40625 L 4.390625 -1.65625 C 4.359375 -1.53125 4.34375 -1.414062 4.34375 -1.3125 C 4.34375 -1.175781 4.367188 -1.066406 4.421875 -0.984375 C 4.472656 -0.910156 4.546875 -0.835938 4.640625 -0.765625 C 4.710938 -0.691406 4.765625 -0.628906 4.796875 -0.578125 C 4.828125 -0.535156 4.832031 -0.472656 4.8125 -0.390625 C 4.757812 -0.253906 4.65625 -0.15625 4.5 -0.09375 C 4.34375 -0.03125 4.097656 0 3.765625 0 L 0.140625 0 C -0.128906 0 -0.328125 -0.0390625 -0.453125 -0.125 C -0.585938 -0.21875 -0.632812 -0.34375 -0.59375 -0.5 C -0.550781 -0.625 -0.4375 -0.734375 -0.25 -0.828125 C -0.09375 -0.910156 0.0351562 -1.007812 0.140625 -1.125 C 0.242188 -1.238281 0.332031 -1.425781 0.40625 -1.6875 L 1.796875 -6.28125 C 1.828125 -6.375 1.84375 -6.453125 1.84375 -6.515625 C 1.84375 -6.628906 1.816406 -6.71875 1.765625 -6.78125 C 1.710938 -6.851562 1.632812 -6.925781 1.53125 -7 C 1.414062 -7.09375 1.335938 -7.171875 1.296875 -7.234375 C 1.253906 -7.296875 1.25 -7.378906 1.28125 -7.484375 C 1.34375 -7.722656 1.675781 -7.9375 2.28125 -8.125 C 2.882812 -8.3125 3.515625 -8.40625 4.171875 -8.40625 Z M 5.25 -11.921875 C 5.65625 -11.921875 5.992188 -11.785156 6.265625 -11.515625 C 6.546875 -11.242188 6.6875 -10.910156 6.6875 -10.515625 C 6.6875 -10.242188 6.613281 -9.972656 6.46875 -9.703125 C 6.332031 -9.441406 6.132812 -9.226562 5.875 -9.0625 C 5.613281 -8.894531 5.328125 -8.8125 5.015625 -8.8125 C 4.609375 -8.8125 4.269531 -8.945312 4 -9.21875 C 3.726562 -9.488281 3.585938 -9.828125 3.578125 -10.234375 C 3.578125 -10.492188 3.644531 -10.753906 3.78125 -11.015625 C 3.914062 -11.273438 4.109375 -11.488281 4.359375 -11.65625 C 4.617188 -11.832031 4.914062 -11.921875 5.25 -11.921875 Z M 5.25 -11.921875 "/></g></g></g><g fill="#d9d9d9" fill-opacity="1"><g transform="translate(47.654629, 83.298445)"><g><path d="M 9.84375 -2.1875 C 9.8125 -2.144531 9.796875 -2.082031 9.796875 -2 C 9.796875 -1.925781 9.816406 -1.867188 9.859375 -1.828125 C 9.898438 -1.785156 9.953125 -1.765625 10.015625 -1.765625 C 10.140625 -1.765625 10.242188 -1.816406 10.328125 -1.921875 C 10.421875 -2.035156 10.484375 -2.09375 10.515625 -2.09375 C 10.566406 -2.09375 10.609375 -2.054688 10.640625 -1.984375 C 10.671875 -1.921875 10.6875 -1.84375 10.6875 -1.75 C 10.695312 -1.4375 10.597656 -1.132812 10.390625 -0.84375 C 10.179688 -0.550781 9.867188 -0.3125 9.453125 -0.125 C 9.046875 0.0507812 8.5625 0.140625 8 0.140625 C 7.289062 0.140625 6.726562 -0.0195312 6.3125 -0.34375 C 5.90625 -0.664062 5.695312 -1.097656 5.6875 -1.640625 C 5.6875 -2.023438 5.78125 -2.460938 5.96875 -2.953125 L 6.84375 -5.25 C 6.894531 -5.382812 6.921875 -5.492188 6.921875 -5.578125 C 6.921875 -5.710938 6.875 -5.816406 6.78125 -5.890625 C 6.695312 -5.972656 6.59375 -6.015625 6.46875 -6.015625 C 6.238281 -6.015625 6.015625 -5.90625 5.796875 -5.6875 C 5.585938 -5.476562 5.4375 -5.210938 5.34375 -4.890625 L 4.359375 -1.65625 C 4.316406 -1.539062 4.296875 -1.425781 4.296875 -1.3125 C 4.296875 -1.1875 4.320312 -1.082031 4.375 -1 C 4.425781 -0.925781 4.5 -0.847656 4.59375 -0.765625 C 4.664062 -0.703125 4.71875 -0.644531 4.75 -0.59375 C 4.78125 -0.539062 4.785156 -0.472656 4.765625 -0.390625 C 4.722656 -0.253906 4.625 -0.15625 4.46875 -0.09375 C 4.3125 -0.03125 4.0625 0 3.71875 0 L 0.09375 0 C -0.175781 0 -0.375 -0.0390625 -0.5 -0.125 C -0.625 -0.21875 -0.671875 -0.34375 -0.640625 -0.5 C -0.597656 -0.625 -0.484375 -0.734375 -0.296875 -0.828125 C -0.140625 -0.910156 -0.0078125 -1.007812 0.09375 -1.125 C 0.195312 -1.238281 0.285156 -1.425781 0.359375 -1.6875 L 1.78125 -6.28125 C 1.800781 -6.332031 1.8125 -6.40625 1.8125 -6.5 C 1.8125 -6.613281 1.785156 -6.703125 1.734375 -6.765625 C 1.691406 -6.828125 1.617188 -6.90625 1.515625 -7 C 1.398438 -7.09375 1.320312 -7.171875 1.28125 -7.234375 C 1.238281 -7.296875 1.234375 -7.378906 1.265625 -7.484375 C 1.328125 -7.722656 1.660156 -7.9375 2.265625 -8.125 C 2.867188 -8.3125 3.5 -8.40625 4.15625 -8.40625 C 4.6875 -8.40625 5.101562 -8.257812 5.40625 -7.96875 C 5.71875 -7.675781 5.859375 -7.269531 5.828125 -6.75 C 6.265625 -7.375 6.722656 -7.804688 7.203125 -8.046875 C 7.691406 -8.285156 8.222656 -8.40625 8.796875 -8.40625 C 9.441406 -8.40625 9.960938 -8.207031 10.359375 -7.8125 C 10.765625 -7.425781 10.96875 -6.921875 10.96875 -6.296875 C 10.96875 -5.960938 10.914062 -5.640625 10.8125 -5.328125 Z M 9.84375 -2.1875 "/></g></g></g><g fill="#d9d9d9" fill-opacity="1"><g transform="translate(59.036293, 83.298445)"><g><path d="M 8.5625 -10.578125 C 9.6875 -10.578125 10.550781 -10.332031 11.15625 -9.84375 C 11.769531 -9.363281 12.078125 -8.71875 12.078125 -7.90625 C 12.078125 -7.59375 12.03125 -7.257812 11.9375 -6.90625 C 11.632812 -5.851562 11.046875 -5.070312 10.171875 -4.5625 C 9.296875 -4.050781 8.191406 -3.796875 6.859375 -3.796875 L 5.234375 -3.796875 L 4.6875 -1.875 C 4.664062 -1.8125 4.65625 -1.726562 4.65625 -1.625 C 4.65625 -1.46875 4.6875 -1.34375 4.75 -1.25 C 4.820312 -1.15625 4.925781 -1.046875 5.0625 -0.921875 C 5.1875 -0.816406 5.269531 -0.738281 5.3125 -0.6875 C 5.351562 -0.632812 5.375 -0.570312 5.375 -0.5 C 5.375 -0.3125 5.285156 -0.179688 5.109375 -0.109375 C 4.941406 -0.0351562 4.695312 0 4.375 0 L 0.375 0 C 0.101562 0 -0.0976562 -0.046875 -0.234375 -0.140625 C -0.367188 -0.242188 -0.414062 -0.390625 -0.375 -0.578125 C -0.351562 -0.671875 -0.3125 -0.742188 -0.25 -0.796875 C -0.195312 -0.859375 -0.113281 -0.925781 0 -1 C 0.175781 -1.101562 0.316406 -1.210938 0.421875 -1.328125 C 0.535156 -1.453125 0.625 -1.632812 0.6875 -1.875 L 2.625 -8.71875 C 2.664062 -8.863281 2.6875 -9 2.6875 -9.125 C 2.6875 -9.238281 2.664062 -9.332031 2.625 -9.40625 C 2.59375 -9.488281 2.546875 -9.582031 2.484375 -9.6875 C 2.378906 -9.832031 2.328125 -9.945312 2.328125 -10.03125 C 2.328125 -10.0625 2.34375 -10.117188 2.375 -10.203125 C 2.414062 -10.335938 2.503906 -10.429688 2.640625 -10.484375 C 2.785156 -10.546875 3.007812 -10.578125 3.3125 -10.578125 Z M 8.15625 -7.203125 C 8.269531 -7.585938 8.328125 -7.929688 8.328125 -8.234375 C 8.328125 -8.847656 8.039062 -9.15625 7.46875 -9.15625 L 6.75 -9.15625 L 5.625 -5.234375 L 6.328125 -5.234375 C 6.765625 -5.234375 7.125 -5.367188 7.40625 -5.640625 C 7.6875 -5.921875 7.9375 -6.441406 8.15625 -7.203125 Z M 8.15625 -7.203125 "/></g></g></g><g fill="#d9d9d9" fill-opacity="1"><g transform="translate(69.893385, 83.298445)"><g><path d="M 5.671875 -8.40625 C 6.890625 -8.40625 7.863281 -8.179688 8.59375 -7.734375 C 9.320312 -7.285156 9.6875 -6.597656 9.6875 -5.671875 C 9.6875 -5.328125 9.625 -4.929688 9.5 -4.484375 L 8.84375 -2.28125 C 8.832031 -2.238281 8.828125 -2.1875 8.828125 -2.125 C 8.828125 -1.957031 8.898438 -1.875 9.046875 -1.875 C 9.171875 -1.875 9.273438 -1.925781 9.359375 -2.03125 C 9.453125 -2.144531 9.515625 -2.203125 9.546875 -2.203125 C 9.597656 -2.203125 9.640625 -2.164062 9.671875 -2.09375 C 9.710938 -2.019531 9.734375 -1.9375 9.734375 -1.84375 C 9.742188 -1.5625 9.632812 -1.269531 9.40625 -0.96875 C 9.1875 -0.675781 8.882812 -0.429688 8.5 -0.234375 C 8.113281 -0.046875 7.695312 0.046875 7.25 0.046875 C 6.695312 0.046875 6.222656 -0.0507812 5.828125 -0.25 C 5.441406 -0.457031 5.171875 -0.753906 5.015625 -1.140625 C 4.703125 -0.765625 4.328125 -0.472656 3.890625 -0.265625 C 3.453125 -0.0546875 2.988281 0.046875 2.5 0.046875 C 1.9375 0.046875 1.460938 -0.0625 1.078125 -0.28125 C 0.703125 -0.5 0.421875 -0.78125 0.234375 -1.125 C 0.046875 -1.46875 -0.046875 -1.828125 -0.046875 -2.203125 C -0.046875 -2.378906 -0.03125 -2.546875 0 -2.703125 C 0.164062 -3.429688 0.53125 -3.976562 1.09375 -4.34375 C 1.664062 -4.71875 2.34375 -4.90625 3.125 -4.90625 C 4.007812 -4.90625 4.875 -4.769531 5.71875 -4.5 L 6.125 -5.546875 C 6.257812 -5.992188 6.328125 -6.335938 6.328125 -6.578125 C 6.316406 -6.828125 6.226562 -7.015625 6.0625 -7.140625 C 5.90625 -7.273438 5.664062 -7.34375 5.34375 -7.34375 C 5.40625 -7.175781 5.4375 -7 5.4375 -6.8125 C 5.4375 -6.425781 5.285156 -6.085938 4.984375 -5.796875 C 4.691406 -5.515625 4.269531 -5.375 3.71875 -5.375 C 3.195312 -5.375 2.789062 -5.484375 2.5 -5.703125 C 2.207031 -5.929688 2.0625 -6.21875 2.0625 -6.5625 C 2.0625 -7.09375 2.359375 -7.53125 2.953125 -7.875 C 3.546875 -8.226562 4.453125 -8.40625 5.671875 -8.40625 Z M 4.78125 -3.59375 C 4.488281 -3.59375 4.25 -3.476562 4.0625 -3.25 C 3.875 -3.019531 3.78125 -2.773438 3.78125 -2.515625 C 3.78125 -2.335938 3.816406 -2.195312 3.890625 -2.09375 C 3.972656 -1.988281 4.09375 -1.9375 4.25 -1.9375 C 4.382812 -1.9375 4.53125 -1.988281 4.6875 -2.09375 C 4.851562 -2.207031 4.972656 -2.378906 5.046875 -2.609375 L 5.390625 -3.546875 C 5.203125 -3.578125 5 -3.59375 4.78125 -3.59375 Z M 4.78125 -3.59375 "/></g></g></g><g fill="#d9d9d9" fill-opacity="1"><g transform="translate(80.289491, 83.298445)"><g><path d="M 5.0625 -11.75 C 5.675781 -11.75 6.128906 -11.628906 6.421875 -11.390625 C 6.710938 -11.160156 6.859375 -10.84375 6.859375 -10.4375 C 6.859375 -10.207031 6.820312 -9.976562 6.75 -9.75 L 4.265625 -1.65625 C 4.234375 -1.53125 4.21875 -1.414062 4.21875 -1.3125 C 4.21875 -1.175781 4.242188 -1.066406 4.296875 -0.984375 C 4.347656 -0.910156 4.421875 -0.835938 4.515625 -0.765625 C 4.585938 -0.691406 4.640625 -0.628906 4.671875 -0.578125 C 4.703125 -0.535156 4.707031 -0.472656 4.6875 -0.390625 C 4.632812 -0.253906 4.523438 -0.15625 4.359375 -0.09375 C 4.203125 -0.03125 3.960938 0 3.640625 0 L 0.015625 0 C -0.253906 0 -0.453125 -0.0390625 -0.578125 -0.125 C -0.710938 -0.21875 -0.757812 -0.34375 -0.71875 -0.5 C -0.675781 -0.625 -0.5625 -0.734375 -0.375 -0.828125 C -0.21875 -0.910156 -0.0859375 -1.007812 0.015625 -1.125 C 0.117188 -1.238281 0.207031 -1.425781 0.28125 -1.6875 L 2.703125 -9.609375 C 2.734375 -9.703125 2.75 -9.785156 2.75 -9.859375 C 2.75 -9.972656 2.71875 -10.066406 2.65625 -10.140625 C 2.601562 -10.210938 2.53125 -10.285156 2.4375 -10.359375 C 2.320312 -10.441406 2.238281 -10.515625 2.1875 -10.578125 C 2.144531 -10.640625 2.140625 -10.726562 2.171875 -10.84375 C 2.234375 -11.082031 2.566406 -11.289062 3.171875 -11.46875 C 3.773438 -11.65625 4.40625 -11.75 5.0625 -11.75 Z M 5.0625 -11.75 "/></g></g></g></svg>